<svg id="Capa_1" enable-background="new 0 0 511.998 511.998" height="512" viewBox="0 0 511.998 511.998" width="512" xmlns="http://www.w3.org/2000/svg"><g><path d="m463.997 202.001h-415.996v-194.999c0-3.866 3.134-7 7-7h150.099c1.857 0 3.637.737 4.95 2.05l43.899 43.899c1.313 1.313 3.093 2.05 4.95 2.05h198.099c3.866 0 7 3.134 7 7v147z" fill="#f9d264"/><path d="m80.003 0v202.005h-31.998v-195.005c0-3.866 3.134-7 7-7z" fill="#efc356"/><path d="m431.998 159.969-15.501 10h-324.5l-11.997-10v-32l11.497-10h324.5l16.001 10z" fill="#9bd8f9"/><path d="m431.998 128.185h-351.998v-25c0-3.866 3.134-7 7-7h337.997c3.866 0 7 3.134 7 7v25z" fill="#eaf6ff"/><path d="m80 160.001h351.997v42h-351.997z" fill="#eaf6ff"/><path d="m472.997 511.998h-433.996c-3.866 0-7-3.134-7-7v-305.997c0-3.866 3.134-7 7-7h433.996c3.866 0 7 3.134 7 7v305.997c0 3.866-3.134 7-7 7z" fill="#fff292"/><path d="m59.597 192h-20.596c-3.866 0-7 3.134-7 7v305.998c0 3.866 3.134 7 7 7h20.596z" fill="#f9e77d"/><path d="m352.002 336.241c0 28.536-12.445 54.157-32.203 71.732-16.967 15.102-39.301 24.271-63.799 24.271-24.59 0-47.007-9.241-63.995-24.446-19.646-17.565-32.008-43.113-32.008-71.556 0-53.013 42.979-95.992 96.003-95.992s96.002 42.978 96.002 95.991z" fill="#365e7d"/><path d="m319.798 370.02v37.952c-16.967 15.102-39.301 24.271-63.799 24.271-24.59 0-47.007-9.241-63.995-24.446v-37.777c0-6.48 4.45-12.228 11.074-14.34l35.397-8.921h34.851l35.397 8.921c6.625 2.112 11.075 7.861 11.075 14.34z" fill="#9bd8f9"/><path d="m266.28 431.697c-3.379.361-6.809.546-10.281.546-24.59 0-47.007-9.241-63.995-24.446v-37.777c0-6.48 4.45-12.228 11.074-14.34l35.397-8.921h20.604l-35.397 8.921c-6.624 2.112-11.074 7.86-11.074 14.34v37.777c14.577 13.053 33.151 21.706 53.672 23.9z" fill="#73c3f9"/><g><path d="m351.998 473.831h-191.998c-4.267 0-7.726-3.459-7.726-7.726s3.459-7.726 7.726-7.726h191.998c4.268 0 7.726 3.459 7.726 7.726s-3.458 7.726-7.726 7.726z" fill="#f9d264"/></g><path d="m223.999 309.024v10.958c0 17.552 14.327 31.78 32 31.78 17.673 0 32-14.228 32-31.78v-10.958c0-17.552-14.327-31.78-32-31.78-17.673 0-32 14.228-32 31.78z" fill="#ffcebf"/><path d="m266.301 350.08c-3.235 1.092-6.696 1.679-10.302 1.679-17.678 0-31.997-14.227-31.997-31.781v-10.951c0-8.777 3.585-16.72 9.375-22.478 5.79-5.749 13.784-9.303 22.623-9.303 3.606 0 7.067.587 10.302 1.679-4.698 1.586-8.89 4.224-12.321 7.623-5.79 5.759-9.375 13.701-9.375 22.478v10.951c-.001 13.97 9.075 25.838 21.695 30.103z" fill="#ffb09e"/></g></svg>